<svg xmlns="http://www.w3.org/2000/svg" viewBox="0 0 450 360" width="450" height="360">
<rect width="450" height="360" fill="white"/>
<polygon points="186,100 162,122 150,142 147,153 146,166 150,185 165,212 200,248 252,285 319,285 232,239 200,216 175,190 162,164 161,143 166,128 174,116 201,91" fill="#ff0000"/>
<polygon points="191,80 158,92 125,112 104,136 96,156 95,178 102,208 124,249 143,274 144,285 189,285 189,283 156,249 128,211 115,182 113,150 121,130 137,111 161,94" fill="#ff0000"/>
<polygon points="187,110 173,128 167,145 168,163 176,181 181,188 183,169 218,222 239,235 283,168 284,260 322,278 322,107 280,107 233,182" fill="#202124"/>
<polygon points="187,261 213,284 225,284 196,260 193,259" fill="#202124"/>
<polygon points="130,182 144,212 151,212 137,182" fill="#202124"/>
<polygon points="153,224 178,252 183,251 159,223" fill="#202124"/>
<polygon points="136,136 133,136 129,148 128,169 133,169 133,154 138,138" fill="#202124"/>
<polygon points="171,102 149,115 141,123 141,125 145,127 158,112" fill="#202124"/>
</svg>